# xmcd
#
# Track frame offsets: 
#        150
#        11535
#        25982
#        38533
#        49430
#        61495
#        72957
#        84580
#        95373
#        107430
#        120587
#        133958
#        145415
#        155043
#        166403
#
# Disc length: 2334 seconds
#
# Revision: 0
# Processed by: cddbd v1.5.1PL0 Copyright (c) Steve Scherf et al.
# Submitted via: ExactAudioCopy v0.95a5
#
DISCID=ce091c0f
DTITLE=Various Artist - Country Classics Volume 2
DYEAR=1993
DGENRE=Country
TTITLE0=Razzy Bailey - 9,999,999 Tears
TTITLE1=Freddy Fender - Since I Met You Baby
TTITLE2=Kitty Wells - Mommy For A Day
TTITLE3=Johnny Paycheck - Take This Job And Shove It
TTITLE4=Waylon Jennings - Don't Think Twice
TTITLE5=Willie Nelson - Some Other Time
TTITLE6=Patsy Cline - Walking After Midnight
TTITLE7=Jerry Wallace - Primrose Lane
TTITLE8=Del Reeves - Girl On The Billboard
TTITLE9=Ronnie Dove - One Kiss For Old Times Sake
TTITLE10=Alabama - Patches
TTITLE11=Porter Wagoner - Angel Band
TTITLE12=Faron Young - Alone With Her
TTITLE13=Sammi Smith - Help Me Make It Through The Night
TTITLE14=Bob Wills - Old San Antonio Rose
EXTD=
EXTT0=
EXTT1=
EXTT2=
EXTT3=
EXTT4=
EXTT5=
EXTT6=
EXTT7=
EXTT8=
EXTT9=
EXTT10=
EXTT11=
EXTT12=
EXTT13=
EXTT14=
PLAYORDER=
